<svg width="26" height="26" viewBox="0 0 26 26" fill="none" xmlns="http://www.w3.org/2000/svg">
<path d="M23.8332 14.0833V9.74996C23.8332 4.33329 21.6665 2.16663 16.2498 2.16663H9.74984C4.33317 2.16663 2.1665 4.33329 2.1665 9.74996V16.25C2.1665 21.6666 4.33317 23.8333 9.74984 23.8333H14.0832" stroke="#2563EB" stroke-width="2" stroke-linecap="round" stroke-linejoin="round"/>
<path d="M23.8332 14.0833V9.74996C23.8332 4.33329 21.6665 2.16663 16.2498 2.16663H9.74984C4.33317 2.16663 2.1665 4.33329 2.1665 9.74996V16.25C2.1665 21.6666 4.33317 23.8333 9.74984 23.8333H14.0832" stroke="#2563EB" stroke-width="2" stroke-linecap="round" stroke-linejoin="round"/>
<path d="M23.8332 14.0833V9.74996C23.8332 4.33329 21.6665 2.16663 16.2498 2.16663H9.74984C4.33317 2.16663 2.1665 4.33329 2.1665 9.74996V16.25C2.1665 21.6666 4.33317 23.8333 9.74984 23.8333H14.0832" stroke="#2563EB" stroke-width="2" stroke-linecap="round" stroke-linejoin="round"/>
<path d="M17.3335 21.0491L19.0452 22.75L22.7502 18.4166" stroke="#2563EB" stroke-width="2" stroke-linecap="round" stroke-linejoin="round"/>
<path d="M7.5835 11.375V14.625" stroke="#2563EB" stroke-width="2" stroke-linecap="round" stroke-linejoin="round"/>
<path d="M13 11.375V14.625" stroke="#2563EB" stroke-width="2" stroke-linecap="round" stroke-linejoin="round"/>
<path d="M18.4165 11.375V14.625" stroke="#2563EB" stroke-width="2" stroke-linecap="round" stroke-linejoin="round"/>
</svg>
