<svg width="26" height="26" viewBox="0 0 26 26" fill="none" xmlns="http://www.w3.org/2000/svg">
<path d="M18.9906 8.41758C18.9148 8.40675 18.839 8.40675 18.7631 8.41758C17.084 8.36341 15.7515 6.98758 15.7515 5.29758C15.7515 3.57508 17.149 2.16675 18.8823 2.16675C20.6048 2.16675 22.0131 3.56425 22.0131 5.29758C22.0023 6.98758 20.6698 8.36341 18.9906 8.41758Z" fill="#2563EB"/>
<path d="M22.5226 15.9249C21.3092 16.7374 19.6084 17.0408 18.0376 16.8349C18.4492 15.9466 18.6659 14.9608 18.6767 13.9208C18.6767 12.8374 18.4384 11.8083 17.9834 10.9091C19.5867 10.6924 21.2876 10.9958 22.5117 11.8083C24.2234 12.9349 24.2234 14.7874 22.5226 15.9249Z" fill="#2563EB"/>
<path d="M6.97651 8.41758C7.05234 8.40675 7.12818 8.40675 7.20401 8.41758C8.88318 8.36341 10.2157 6.98758 10.2157 5.29758C10.2157 3.56425 8.81818 2.16675 7.08484 2.16675C5.36234 2.16675 3.96484 3.56425 3.96484 5.29758C3.96484 6.98758 5.29734 8.36341 6.97651 8.41758Z" fill="#2563EB"/>
<path d="M7.09572 13.9207C7.09572 14.9716 7.32322 15.9682 7.73488 16.8674C6.20738 17.0299 4.61488 16.7049 3.44488 15.9357C1.73322 14.7982 1.73322 12.9457 3.44488 11.8082C4.60405 11.0282 6.23988 10.7141 7.77822 10.8874C7.33405 11.7974 7.09572 12.8266 7.09572 13.9207Z" fill="#2563EB"/>
<path d="M13.1302 17.1925C13.0435 17.1817 12.946 17.1817 12.8485 17.1925C10.8552 17.1275 9.2627 15.4917 9.2627 13.4767C9.27353 11.4183 10.931 9.75 13.0002 9.75C15.0585 9.75 16.7269 11.4183 16.7269 13.4767C16.716 15.4917 15.1344 17.1275 13.1302 17.1925Z" fill="#2563EB"/>
<path d="M9.6092 19.4351C7.97337 20.5293 7.97337 22.3276 9.6092 23.4109C11.4725 24.6568 14.5275 24.6568 16.3909 23.4109C18.0267 22.3168 18.0267 20.5184 16.3909 19.4351C14.5384 18.1893 11.4834 18.1893 9.6092 19.4351Z" fill="#2563EB"/>
</svg>
