<svg width="20" height="20" viewBox="0 0 20 20" fill="none" xmlns="http://www.w3.org/2000/svg">
<path d="M16.6275 7.72554C15.1465 7.72554 14.5411 6.67826 15.2775 5.39372C15.7029 4.64917 15.4493 3.70008 14.7047 3.27463L13.2893 2.46463C12.6429 2.08008 11.8084 2.30917 11.4238 2.95554L11.3338 3.11099C10.5975 4.39554 9.38654 4.39554 8.642 3.11099L8.552 2.95554C8.18381 2.30917 7.34927 2.08008 6.7029 2.46463L5.28745 3.27463C4.5429 3.70008 4.28927 4.65735 4.71472 5.4019C5.45927 6.67826 4.85381 7.72554 3.3729 7.72554C2.522 7.72554 1.81836 8.42099 1.81836 9.28008V10.7201C1.81836 11.571 2.51381 12.2746 3.3729 12.2746C4.85381 12.2746 5.45927 13.3219 4.71472 14.6064C4.28927 15.351 4.5429 16.3001 5.28745 16.7255L6.7029 17.5355C7.34927 17.9201 8.18381 17.691 8.56836 17.0446L8.65836 16.8892C9.39472 15.6046 10.6056 15.6046 11.3502 16.8892L11.4402 17.0446C11.8247 17.691 12.6593 17.9201 13.3056 17.5355L14.7211 16.7255C15.4656 16.3001 15.7193 15.3428 15.2938 14.6064C14.5493 13.3219 15.1547 12.2746 16.6356 12.2746C17.4865 12.2746 18.1902 11.5792 18.1902 10.7201V9.28008C18.182 8.42917 17.4865 7.72554 16.6275 7.72554ZM10.0002 12.6592C8.53563 12.6592 7.34109 11.4646 7.34109 10.0001C7.34109 8.53554 8.53563 7.34099 10.0002 7.34099C11.4647 7.34099 12.6593 8.53554 12.6593 10.0001C12.6593 11.4646 11.4647 12.6592 10.0002 12.6592Z" fill="#2563EB"/>
</svg>
