<svg width="17" height="16" viewBox="0 0 17 16" fill="none" xmlns="http://www.w3.org/2000/svg">
<rect x="0.5" width="16" height="16" rx="8" fill="#CFD7FF" fill-opacity="0.72"/>
<path d="M8.10433 9.22921L7.3335 10C7.171 10.1625 6.91266 10.1625 6.746 10.0042C6.70016 9.95837 6.65433 9.91671 6.6085 9.87087C6.17933 9.43754 5.79183 8.98337 5.446 8.50837C5.10433 8.03337 4.82933 7.55837 4.62933 7.08754C4.4335 6.61254 4.3335 6.15837 4.3335 5.72504C4.3335 5.44171 4.3835 5.17087 4.4835 4.92087C4.5835 4.66671 4.74183 4.43337 4.96266 4.22504C5.22933 3.96254 5.521 3.83337 5.82933 3.83337C5.946 3.83337 6.06266 3.85837 6.16683 3.90837C6.27516 3.95837 6.371 4.03337 6.446 4.14171L7.41266 5.50421C7.48766 5.60837 7.54183 5.70421 7.57933 5.79587C7.61683 5.88337 7.63766 5.97087 7.63766 6.05004C7.63766 6.15004 7.6085 6.25004 7.55016 6.34587C7.496 6.44171 7.41683 6.54171 7.31683 6.64171L7.00016 6.97087C6.95433 7.01671 6.9335 7.07087 6.9335 7.13754C6.9335 7.17087 6.93766 7.20004 6.946 7.23337C6.9585 7.26671 6.971 7.29171 6.97933 7.31671C7.05433 7.45421 7.1835 7.63337 7.36683 7.85004C7.55433 8.06671 7.75433 8.28754 7.971 8.50837C8.01266 8.55004 8.0585 8.59171 8.10016 8.63337C8.26683 8.79587 8.271 9.06254 8.10433 9.22921Z" fill="#2563EB"/>
<path d="M12.6542 10.6375C12.6542 10.7541 12.6333 10.875 12.5917 10.9916C12.5792 11.025 12.5667 11.0583 12.55 11.0916C12.4792 11.2416 12.3875 11.3833 12.2667 11.5166C12.0625 11.7416 11.8375 11.9041 11.5833 12.0083C11.5792 12.0083 11.575 12.0125 11.5708 12.0125C11.325 12.1125 11.0583 12.1666 10.7708 12.1666C10.3458 12.1666 9.89167 12.0666 9.4125 11.8625C8.93333 11.6583 8.45417 11.3833 7.97917 11.0375C7.81667 10.9166 7.65417 10.7958 7.5 10.6666L8.8625 9.30414C8.97917 9.39164 9.08333 9.45831 9.17083 9.50414C9.19167 9.51248 9.21667 9.52498 9.24583 9.53748C9.27917 9.54998 9.3125 9.55414 9.35 9.55414C9.42083 9.55414 9.475 9.52914 9.52083 9.48331L9.8375 9.17081C9.94167 9.06664 10.0417 8.98748 10.1375 8.93748C10.2333 8.87914 10.3292 8.84998 10.4333 8.84998C10.5125 8.84998 10.5958 8.86664 10.6875 8.90414C10.7792 8.94164 10.875 8.99581 10.9792 9.06664L12.3583 10.0458C12.4667 10.1208 12.5417 10.2083 12.5875 10.3125C12.6292 10.4166 12.6542 10.5208 12.6542 10.6375Z" fill="#2563EB"/>
</svg>
