<svg width="17" height="16" viewBox="0 0 17 16" fill="none" xmlns="http://www.w3.org/2000/svg">
<path d="M15.1532 7.60663C14.9265 3.73997 11.4132 0.759975 7.36653 1.42664C4.57986 1.88664 2.34654 4.14663 1.9132 6.93329C1.65987 8.54663 1.99322 10.0733 2.71988 11.3333L2.12654 13.54C1.99321 14.04 2.45319 14.4933 2.94653 14.3533L5.11987 13.7533C6.10653 14.3333 7.25987 14.6666 8.4932 14.6666C12.2532 14.6666 15.3732 11.3533 15.1532 7.60663ZM11.7532 10.48C11.6932 10.6 11.6199 10.7133 11.5265 10.82C11.3599 11 11.1799 11.1333 10.9799 11.2133C10.7799 11.3 10.5599 11.34 10.3265 11.34C9.98653 11.34 9.61986 11.26 9.23986 11.0933C8.8532 10.9266 8.47322 10.7066 8.09322 10.4333C7.70655 10.1533 7.34654 9.83996 6.99987 9.49996C6.65321 9.1533 6.34652 8.78662 6.06652 8.40662C5.79319 8.02662 5.5732 7.64663 5.4132 7.26663C5.2532 6.88663 5.17321 6.51997 5.17321 6.1733C5.17321 5.94664 5.21321 5.72664 5.29321 5.52664C5.37321 5.31997 5.49989 5.13331 5.67989 4.96664C5.89322 4.75331 6.12654 4.65331 6.3732 4.65331C6.46654 4.65331 6.55985 4.6733 6.64652 4.7133C6.73319 4.7533 6.8132 4.8133 6.8732 4.89997L7.64652 5.99329C7.70652 6.07996 7.75319 6.1533 7.77986 6.22663C7.81319 6.29996 7.82653 6.36663 7.82653 6.43329C7.82653 6.51329 7.79988 6.5933 7.75321 6.6733C7.70654 6.7533 7.64652 6.83329 7.56652 6.91329L7.31319 7.17996C7.27319 7.21996 7.25988 7.25997 7.25988 7.3133C7.25988 7.33997 7.26652 7.36663 7.27319 7.3933C7.28652 7.41996 7.29321 7.43997 7.29988 7.45997C7.35988 7.5733 7.46653 7.71329 7.61319 7.88662C7.76653 8.05996 7.92656 8.23996 8.09989 8.41329C8.27989 8.59329 8.45321 8.75329 8.63321 8.90662C8.80655 9.05329 8.95319 9.1533 9.06652 9.2133C9.08652 9.21997 9.10654 9.23329 9.12654 9.23995C9.15321 9.25329 9.17988 9.2533 9.21321 9.2533C9.27321 9.2533 9.31323 9.2333 9.35323 9.1933L9.60652 8.93997C9.69319 8.8533 9.77322 8.7933 9.84655 8.7533C9.92655 8.70663 9.99988 8.67996 10.0865 8.67996C10.1532 8.67996 10.2199 8.6933 10.2932 8.72663C10.3665 8.75996 10.4465 8.79997 10.5265 8.85997L11.6332 9.64663C11.7199 9.70663 11.7799 9.77997 11.8199 9.85997C11.8532 9.94664 11.8732 10.0266 11.8732 10.12C11.8332 10.2333 11.8065 10.36 11.7532 10.48Z" fill="#2563EB"/>
</svg>
