<svg width="35" height="35" viewBox="0 0 35 35" fill="none" xmlns="http://www.w3.org/2000/svg">
<g clip-path="url(#clip0_20_77)">
<path d="M17.5 35C7.8365 35 0 27.1635 0 17.5C0 7.8365 7.8365 0 17.5 0C27.1635 0 35 7.8365 35 17.5C35 27.1635 27.1635 35 17.5 35Z" fill="#3B579D"/>
<path d="M22.05 35V21.4445H26.6L27.2825 16.163H22.05V12.789C22.05 11.2595 22.4735 10.2165 24.668 10.2165H27.4645V5.495C26.9815 5.432 25.319 5.2885 23.387 5.2885C19.355 5.2885 16.5935 7.749 16.5935 12.271V16.1665H12.033V21.448H16.5935V35H22.05Z" fill="white"/>
</g>
<defs>
<clipPath id="clip0_20_77">
<rect width="35" height="35" fill="white"/>
</clipPath>
</defs>
</svg>
