<svg width="54" height="47" viewBox="0 0 54 47" fill="none" xmlns="http://www.w3.org/2000/svg">
<path d="M40.5 0H13.5C5.4 0 0 4.14706 0 13.8235V33.1765C0 42.8529 5.4 47 13.5 47H40.5C48.6 47 54 42.8529 54 33.1765V13.8235C54 4.14706 48.6 0 40.5 0ZM41.769 16.8371L33.318 23.7488C31.536 25.2141 29.268 25.9329 27 25.9329C24.732 25.9329 22.437 25.2141 20.682 23.7488L12.231 16.8371C11.367 16.1182 11.232 14.7912 11.907 13.9065C12.609 13.0218 13.878 12.8559 14.742 13.5747L23.193 20.4865C25.245 22.1729 28.728 22.1729 30.78 20.4865L39.231 13.5747C40.095 12.8559 41.391 12.9941 42.066 13.9065C42.768 14.7912 42.633 16.1182 41.769 16.8371Z" fill="#2563EB"/>
</svg>
