<svg width="79" height="289" viewBox="0 0 79 289" fill="none" xmlns="http://www.w3.org/2000/svg">
<g clip-path="url(#clip0_11_355)">
<path d="M74.2133 279.372C76.8478 279.372 79 281.536 79 284.186C79 286.835 76.8478 289 74.2133 289C71.5787 289 69.4265 286.835 69.4265 284.186C69.4636 281.536 71.5787 279.372 74.2133 279.372Z" fill="white"/>
<path d="M74.2133 244.441C76.8478 244.441 79 246.605 79 249.255C79 251.905 76.8478 254.069 74.2133 254.069C71.5787 254.069 69.4265 251.905 69.4265 249.255C69.4636 246.605 71.5787 244.441 74.2133 244.441Z" fill="white"/>
<path d="M74.2133 209.547C76.8478 209.547 79 211.712 79 214.362C79 217.011 76.8478 219.176 74.2133 219.176C71.5787 219.176 69.4265 217.011 69.4265 214.362C69.4636 211.675 71.5787 209.547 74.2133 209.547Z" fill="white"/>
<path d="M74.2133 174.617C76.8478 174.617 79 176.781 79 179.431C79 182.08 76.8478 184.245 74.2133 184.245C71.5787 184.245 69.4265 182.08 69.4265 179.431C69.4636 176.744 71.5787 174.617 74.2133 174.617Z" fill="white"/>
<path d="M74.2133 139.686C76.8478 139.686 79 141.85 79 144.5C79 147.15 76.8478 149.314 74.2133 149.314C71.5787 149.314 69.4265 147.15 69.4265 144.5C69.4636 141.85 71.5787 139.686 74.2133 139.686Z" fill="white"/>
<path d="M74.2133 104.755C76.8478 104.755 79 106.92 79 109.569C79 112.219 76.8478 114.383 74.2133 114.383C71.5787 114.383 69.4265 112.219 69.4265 109.569C69.4636 106.92 71.5787 104.755 74.2133 104.755Z" fill="white"/>
<path d="M74.2133 69.8616C76.8478 69.8616 79 72.0261 79 74.6758C79 77.3254 76.8478 79.4899 74.2133 79.4899C71.5787 79.4899 69.4265 77.3254 69.4265 74.6758C69.4636 71.9888 71.5787 69.8616 74.2133 69.8616Z" fill="white"/>
<path d="M74.2133 34.9308C76.8478 34.9308 79 37.0953 79 39.745C79 42.3946 76.8478 44.5591 74.2133 44.5591C71.5787 44.5591 69.4265 42.3946 69.4265 39.745C69.4636 37.058 71.5787 34.9308 74.2133 34.9308Z" fill="white"/>
<path d="M74.2133 0C76.8478 0 79 2.16451 79 4.81418C79 7.46384 76.8478 9.62836 74.2133 9.62836C71.5787 9.62836 69.4265 7.46384 69.4265 4.81418C69.4636 2.16451 71.5787 0 74.2133 0Z" fill="white"/>
<path d="M39.5186 279.372C42.1531 279.372 44.3053 281.536 44.3053 284.186C44.3053 286.835 42.1531 289 39.5186 289C36.884 289 34.7318 286.835 34.7318 284.186C34.7318 281.536 36.8469 279.372 39.5186 279.372Z" fill="white"/>
<path d="M39.5186 244.441C42.1531 244.441 44.3053 246.605 44.3053 249.255C44.3053 251.905 42.1531 254.069 39.5186 254.069C36.884 254.069 34.7318 251.905 34.7318 249.255C34.7318 246.605 36.8469 244.441 39.5186 244.441Z" fill="white"/>
<path d="M39.5186 209.547C42.1531 209.547 44.3053 211.712 44.3053 214.362C44.3053 217.011 42.1531 219.176 39.5186 219.176C36.884 219.176 34.7318 217.011 34.7318 214.362C34.7318 211.675 36.8469 209.547 39.5186 209.547Z" fill="white"/>
<path d="M39.5186 174.617C42.1531 174.617 44.3053 176.781 44.3053 179.431C44.3053 182.08 42.1531 184.245 39.5186 184.245C36.884 184.245 34.7318 182.08 34.7318 179.431C34.7318 176.744 36.8469 174.617 39.5186 174.617Z" fill="white"/>
<path d="M39.5186 139.686C42.1531 139.686 44.3053 141.85 44.3053 144.5C44.3053 147.15 42.1531 149.314 39.5186 149.314C36.884 149.314 34.7318 147.15 34.7318 144.5C34.7318 141.85 36.8469 139.686 39.5186 139.686Z" fill="white"/>
<path d="M39.5186 104.755C42.1531 104.755 44.3053 106.92 44.3053 109.569C44.3053 112.219 42.1531 114.383 39.5186 114.383C36.884 114.383 34.7318 112.219 34.7318 109.569C34.7318 106.92 36.8469 104.755 39.5186 104.755Z" fill="white"/>
<path d="M39.5186 69.8616C42.1531 69.8616 44.3053 72.0261 44.3053 74.6758C44.3053 77.3254 42.1531 79.4899 39.5186 79.4899C36.884 79.4899 34.7318 77.3254 34.7318 74.6758C34.7318 71.9888 36.8469 69.8616 39.5186 69.8616Z" fill="white"/>
<path d="M39.5186 34.9308C42.1531 34.9308 44.3053 37.0953 44.3053 39.745C44.3053 42.3946 42.1531 44.5591 39.5186 44.5591C36.884 44.5591 34.7318 42.3946 34.7318 39.745C34.7318 37.058 36.8469 34.9308 39.5186 34.9308Z" fill="white"/>
<path d="M39.5186 0C42.1531 0 44.3053 2.16451 44.3053 4.81418C44.3053 7.46384 42.1531 9.62836 39.5186 9.62836C36.8469 9.62836 34.7318 7.46384 34.7318 4.81418C34.7318 2.16451 36.8469 0 39.5186 0Z" fill="white"/>
<path d="M4.78675 279.372C7.42132 279.372 9.57351 281.536 9.57351 284.186C9.57351 286.835 7.42132 289 4.78675 289C2.15218 289 0 286.835 0 284.186C0 281.536 2.15218 279.372 4.78675 279.372Z" fill="white"/>
<path d="M4.78675 244.441C7.42132 244.441 9.57351 246.605 9.57351 249.255C9.57351 251.905 7.42132 254.069 4.78675 254.069C2.15218 254.069 0 251.905 0 249.255C0 246.605 2.15218 244.441 4.78675 244.441Z" fill="white"/>
<path d="M4.78675 209.547C7.42132 209.547 9.57351 211.712 9.57351 214.362C9.57351 217.011 7.42132 219.176 4.78675 219.176C2.15218 219.176 0 217.011 0 214.324C0 211.675 2.15218 209.547 4.78675 209.547Z" fill="white"/>
<path d="M4.78675 174.617C7.42132 174.617 9.57351 176.781 9.57351 179.431C9.57351 182.08 7.42132 184.245 4.78675 184.245C2.15218 184.245 0 182.08 0 179.431C0 176.744 2.15218 174.617 4.78675 174.617Z" fill="white"/>
<path d="M4.78675 139.686C7.42132 139.686 9.57351 141.85 9.57351 144.5C9.57351 147.15 7.42132 149.314 4.78675 149.314C2.15218 149.314 0 147.15 0 144.5C0 141.85 2.15218 139.686 4.78675 139.686Z" fill="white"/>
<path d="M4.78675 104.755C7.42132 104.755 9.57351 106.92 9.57351 109.569C9.57351 112.219 7.42132 114.383 4.78675 114.383C2.15218 114.383 0 112.219 0 109.569C0 106.92 2.15218 104.755 4.78675 104.755Z" fill="white"/>
<path d="M4.78675 69.8616C7.42132 69.8616 9.57351 72.0261 9.57351 74.6758C9.57351 77.3254 7.42132 79.4899 4.78675 79.4899C2.15218 79.4899 0 77.3254 0 74.6384C0 71.9888 2.15218 69.8616 4.78675 69.8616Z" fill="white"/>
<path d="M4.78675 34.9308C7.42132 34.9308 9.57351 37.0953 9.57351 39.745C9.57351 42.3946 7.42132 44.5591 4.78675 44.5591C2.15218 44.5591 0 42.3946 0 39.745C0 37.058 2.15218 34.9308 4.78675 34.9308Z" fill="white"/>
<path d="M4.78675 0C7.42132 0 9.57351 2.16451 9.57351 4.81418C9.57351 7.46384 7.42132 9.62836 4.78675 9.62836C2.15218 9.62836 0 7.46384 0 4.81418C0 2.16451 2.15218 0 4.78675 0Z" fill="white"/>
</g>
<defs>
<clipPath id="clip0_11_355">
<rect width="79" height="289" fill="white"/>
</clipPath>
</defs>
</svg>
