<svg width="32" height="35" viewBox="0 0 32 35" fill="none" xmlns="http://www.w3.org/2000/svg">
<g clip-path="url(#clip0_20_70)">
<path d="M32 17.9074C32 16.7592 31.8933 15.5741 31.7155 14.463H16.3148V21.0185H25.1355C24.7799 23.1296 23.6061 24.9815 21.8633 26.1667L27.1273 30.4259C30.2217 27.4259 32 23.0555 32 17.9074Z" fill="#4280EF"/>
<path d="M16.3184 34.5C20.7287 34.5 24.4277 32.9815 27.1308 30.3889L21.8669 26.1667C20.4086 27.2037 18.5235 27.7963 16.3184 27.7963C12.0503 27.7963 8.45796 24.7963 7.14196 20.7963L1.73572 25.1296C4.50642 30.8704 10.1261 34.5 16.3184 34.5Z" fill="#34A353"/>
<path d="M7.13843 20.7593C6.46265 18.6481 6.46265 16.3518 7.13843 14.2407L1.73574 9.87036C-0.576139 14.6852 -0.576139 20.3518 1.73574 25.1296L7.13843 20.7593Z" fill="#F6B704"/>
<path d="M16.3184 7.24072C18.6302 7.20368 20.9066 8.12961 22.5782 9.79627L27.2376 4.90738C24.2855 2.01849 20.373 0.462938 16.3184 0.499975C10.1296 0.499975 4.50998 4.1296 1.73572 9.87035L7.14196 14.2407C8.4544 10.2037 12.0503 7.24072 16.3184 7.24072Z" fill="#E54335"/>
</g>
<defs>
<clipPath id="clip0_20_70">
<rect width="32" height="34" fill="white" transform="translate(0 0.5)"/>
</clipPath>
</defs>
</svg>
