<svg width="21" height="20" viewBox="0 0 21 20" fill="none" xmlns="http://www.w3.org/2000/svg">
<path d="M18.4667 8.95009L17.3334 7.63342C17.1167 7.38342 16.9417 6.91676 16.9417 6.58342V5.16676C16.9417 4.28342 16.2167 3.55842 15.3334 3.55842H13.9167C13.5917 3.55842 13.1167 3.38342 12.8667 3.16676L11.5501 2.03342C10.9751 1.54176 10.0334 1.54176 9.45007 2.03342L8.14173 3.17509C7.89173 3.38342 7.41673 3.55842 7.09173 3.55842H5.65006C4.76673 3.55842 4.04173 4.28342 4.04173 5.16676V6.59176C4.04173 6.91676 3.86673 7.38342 3.6584 7.63342L2.5334 8.95842C2.05007 9.53342 2.05007 10.4668 2.5334 11.0418L3.6584 12.3668C3.86673 12.6168 4.04173 13.0834 4.04173 13.4084V14.8334C4.04173 15.7168 4.76673 16.4418 5.65006 16.4418H7.09173C7.41673 16.4418 7.89173 16.6168 8.14173 16.8334L9.4584 17.9668C10.0334 18.4584 10.9751 18.4584 11.5584 17.9668L12.8751 16.8334C13.1251 16.6168 13.5917 16.4418 13.9251 16.4418H15.3417C16.2251 16.4418 16.9501 15.7168 16.9501 14.8334V13.4168C16.9501 13.0918 17.1251 12.6168 17.3417 12.3668L18.4751 11.0501C18.9584 10.4751 18.9584 9.52509 18.4667 8.95009ZM13.9667 8.42509L9.94173 12.4501C9.82507 12.5668 9.66673 12.6334 9.50007 12.6334C9.3334 12.6334 9.17507 12.5668 9.0584 12.4501L7.04173 10.4334C6.80007 10.1918 6.80007 9.79176 7.04173 9.55009C7.2834 9.30842 7.6834 9.30842 7.92507 9.55009L9.50007 11.1251L13.0834 7.54176C13.3251 7.30009 13.7251 7.30009 13.9667 7.54176C14.2084 7.78342 14.2084 8.18342 13.9667 8.42509Z" fill="#22C55E"/>
</svg>
