<svg width="280" height="201" viewBox="0 0 280 201" fill="none" xmlns="http://www.w3.org/2000/svg">
<g clip-path="url(#clip0_110_3263)">
<path d="M240.26 192.371C240.26 192.371 242.055 190.97 241.66 189.859C241.266 188.748 245.071 189.489 245.071 189.489C245.071 189.489 246.286 192.908 245.201 194.914C244.121 196.92 240.26 192.371 240.26 192.371Z" fill="#EFEFEF"/>
<path d="M266.671 193.76L265.505 189.656L269.946 189.063C269.946 189.063 272.167 193.773 271.056 193.766C270.989 193.76 266.671 193.76 266.671 193.76Z" fill="#EFEFEF"/>
<path d="M185.54 43.6304C185.54 43.6304 184.411 41.4208 184.497 39.8778C184.584 38.3348 184.861 36.5449 184.244 35.7116C183.628 34.8784 180.938 29.9963 180.605 30.0024C180.032 30.0148 179.477 30.5765 180.093 32.2985C180.716 34.0205 180.235 35.0203 180.019 34.8414C179.81 34.6562 173.198 29.9778 172.291 30.0827C171.385 30.1876 171.249 31.2307 171.249 31.2307C171.249 31.2307 169.806 30.632 169.485 31.9158C169.164 33.1996 169.682 33.9958 169.682 33.9958C169.682 33.9958 168.56 34.471 169.053 35.7733C169.547 37.0757 176.652 43.9267 177.343 44.3834C178.033 44.8401 179.378 44.8525 179.908 44.8833C180.433 44.9142 181.339 46.2659 181.339 46.2659L185.54 43.6304Z" fill="#F5BCA9"/>
<path d="M249.117 84.9278C249.117 84.9278 261.848 168.362 270.834 189.841L265.592 190.717C265.592 190.717 248.741 146.877 246.866 134.699C244.991 122.522 235.073 88.4212 235.073 88.4212L248.556 83.9218" fill="#231F20"/>
<path d="M222.91 85.8042L239.964 86.7979V100.235H236.948L241.192 139.137L245.935 190.723H241.068C241.068 190.723 231.52 147.445 230.022 135.267C228.523 123.09 222.91 85.8042 222.91 85.8042Z" fill="#231F20"/>
<path d="M220.659 37.1251C222.158 34.5328 235.073 31.6011 235.073 31.6011C235.073 31.6011 255.298 35.6993 256.673 37.8164C257.358 38.8718 249.117 84.934 249.117 84.934C249.117 84.934 238.885 93.9268 222.904 86.9338C222.91 86.9276 214.423 47.9077 220.659 37.1251Z" fill="#5B5B5B"/>
<path d="M244.985 23.0342C244.923 23.0404 242.721 33.7736 242.721 33.7736C242.721 33.7736 237.207 40.7974 233.05 39.1001C230.521 38.0694 230.521 33.3354 230.521 33.3354L231.36 23.6637L244.985 23.0342Z" fill="#DEAA99"/>
<path d="M233.247 6.54856C233.247 6.54856 230.817 10.5049 230.25 15.4734C229.682 20.4419 228.578 22.8429 227.962 24.1637C227.012 26.2005 230.33 30.2432 235.351 29.9963C240.377 29.7494 242.388 27.2806 244.103 23.9291C244.103 23.9291 245.873 24.8179 247.365 22.4849C248.692 20.4111 247.847 18.831 246.551 18.9853C245.256 19.1334 245.256 19.1334 245.256 19.1334C245.256 19.1334 247.97 11.9244 245.774 9.35686C243.578 6.7831 235.425 3.8205 233.247 6.54856Z" fill="#F5BCA9"/>
<path d="M238.823 23.423C238.953 23.3859 235.357 27.5027 231.619 23.5526C231.619 23.5526 235.554 24.3241 238.823 23.423Z" fill="white"/>
<path d="M244.645 20.8616C244.645 20.8616 243.042 20.948 243.338 20.0901C243.634 19.2322 243.319 12.0108 244.818 11.011C244.818 11.011 236.461 13.7205 232.057 11.1653C227.653 8.61002 229.861 2.77741 233.334 0.47522C233.334 0.47522 233.765 3.07367 236.824 2.79592C243.615 2.18489 250.856 5.30796 248.796 9.19637C248.796 9.19637 250.597 9.85678 248.981 14.3254C246.317 21.7257 246.052 17.2077 244.645 20.8616Z" fill="#402F31"/>
<path d="M240.291 17.936C240.267 18.5409 239.983 19.0162 239.656 19.0038C239.329 18.9915 239.082 18.4915 239.107 17.8928C239.132 17.2941 239.416 16.8127 239.742 16.8251C240.069 16.8374 240.316 17.3312 240.291 17.936Z" fill="#402F31"/>
<path d="M233.359 17.467C233.241 18.0595 232.884 18.4854 232.563 18.4237C232.242 18.3619 232.076 17.8311 232.187 17.2386C232.304 16.6461 232.662 16.2202 232.982 16.2819C233.309 16.3437 233.476 16.8745 233.359 17.467Z" fill="#402F31"/>
<path d="M237.83 15.103C237.83 15.103 239.656 14.7574 241.506 15.9363C241.506 15.9363 241.907 15.4733 240.593 14.671C240.593 14.6771 238.225 13.1465 237.83 15.103Z" fill="#402F31"/>
<path d="M233.79 15.0043C233.79 15.0043 232.285 14.4364 230.54 15.3746C230.54 15.3746 230.262 14.8685 231.502 14.2389C231.508 14.2389 233.741 13.0169 233.79 15.0043Z" fill="#402F31"/>
<path d="M221.159 37.8656L220.665 37.125C220.665 37.125 215.768 40.0876 201.817 55.561C200.417 57.1164 185.484 42.9453 185.484 42.9453L180.76 46.5066C180.76 46.5066 196.426 67.8249 200.546 67.7756C207.991 67.6891 226.075 52.4503 226.075 52.4503L221.159 37.8656Z" fill="#5B5B5B"/>
<path d="M228.887 197.377C228.905 197.087 229.479 196.76 230.164 196.612C231.681 196.291 234.197 195.68 235.468 194.908C237.361 193.76 240.396 191.841 240.396 191.841C240.396 191.841 241.993 193.643 243.486 193.865C244.979 194.087 245.577 193.007 245.861 193.501C246.15 193.995 245.441 197.945 245.441 197.945L241.956 197.963C241.956 197.963 241.79 197.204 241.093 196.976C240.396 196.747 238.243 197.988 238.243 197.988L228.856 197.895C228.856 197.902 228.868 197.667 228.887 197.377Z" fill="#402F31"/>
<path d="M267.935 197.494C268.478 197.766 275.917 200.105 278.112 200.796C278.445 200.901 278.97 200.852 279.272 200.679L279.747 200.42C280.055 200.253 280.086 199.932 279.815 199.71C278.316 198.469 273.869 194.76 273.406 194.167C272.851 193.452 271.519 192.143 271.389 191.847C271.26 191.551 269.28 191.946 268.09 192.662C266.899 193.377 266.504 192.982 266.19 192.822C265.875 192.662 265.511 192.692 265.795 193.377C265.795 193.371 267.3 197.179 267.935 197.494Z" fill="#402F31"/>
<path d="M251.523 85.8042C251.523 85.8042 251.301 84.5945 250.918 83.9341C250.283 82.8478 250.672 80.9777 250.024 79.842C249.376 78.7063 248.402 80.7678 248.723 82.0022C249.05 83.2366 247.853 83.5452 247.853 83.5452C247.853 83.5452 244.196 81.5949 242.573 81.4344C240.951 81.2739 239.132 85.545 239.619 86.1128C239.761 86.2733 240.396 86.4708 240.396 86.4708C240.396 86.4708 239.132 89.3285 239.687 89.5939C240.236 89.8531 240.328 89.563 240.328 89.563C240.328 89.563 240.069 91.3159 240.655 91.285C241.241 91.2542 244.035 87.9336 244.035 87.9336C244.035 87.9336 249.074 93.0688 250.172 92.6182C251.276 92.1615 257.45 84.613 257.45 84.613L255.372 82.4096C255.365 82.4096 251.498 85.9956 251.523 85.8042Z" fill="#F5BCA9"/>
<path d="M256.673 37.8102C256.673 37.8102 273.48 60.7148 273.48 66.8992C273.48 69.3865 252.954 91.4147 252.954 91.4147L251.517 85.7981C251.517 85.7981 262.434 67.8497 262.434 66.4733C262.434 63.7206 250.542 54.518 250.542 54.518L256.673 37.8102Z" fill="#5B5B5B"/>
<path d="M233.92 39.2483L230.823 42.106L232.328 44.6057C232.328 44.6057 229.312 63.9243 229.763 74.1884L233.093 79.1076L236.424 75.2994C236.424 75.2994 233.914 54.4625 234.308 44.6982L236.424 42.2664L233.92 39.2483Z" fill="#1D4ED8"/>
<path d="M233.92 39.2482L238.595 45.6363C238.595 45.6363 244.239 38.0385 244.64 33.7365L242.974 32.533C242.98 32.533 238.971 37.8471 233.92 39.2482Z" fill="#EDF8FF"/>
<path d="M229.004 45.161C229.078 45.4943 233.92 39.2482 233.92 39.2482C233.92 39.2482 230.484 37.9582 230.515 32.7737L228.653 33.323C228.653 33.323 227.456 38.452 229.004 45.161Z" fill="#EDF8FF"/>
<path d="M40.5039 192.372C40.5039 192.372 42.2987 190.97 41.904 189.859C41.5093 188.749 45.3148 189.489 45.3148 189.489C45.3148 189.489 46.5299 192.908 45.4443 194.914C44.3588 196.92 40.5039 192.372 40.5039 192.372Z" fill="#EFEFEF"/>
<path d="M66.7417 193.649L65.7856 189.545L69.4123 188.952C69.4123 188.952 71.2257 193.661 70.319 193.655C70.2696 193.649 66.7417 193.649 66.7417 193.649Z" fill="#EFEFEF"/>
<path d="M56.3552 112.48C56.3552 112.48 56.3305 112.357 56.2997 112.153C56.1455 111.042 55.8618 107.474 58.5756 106.715C61.8014 105.814 66.0818 107.882 66.5013 110.098C66.9268 112.32 66.7665 113.696 66.7665 113.696L64.509 112.64C64.509 112.64 65.1258 108.567 62.0604 108.357C58.995 108.147 57.8848 112.165 58.1994 112.801" fill="#402F31"/>
<path d="M25.997 14.2451C25.997 14.2451 22.5924 15.8622 22.1976 17.3003C21.8029 18.7384 21.4822 20.4419 21.4822 20.4419L18.6265 22.7688L22.3148 26.6695L27.6376 24.1451C27.6376 24.1451 29.451 14.4858 25.997 14.2451Z" fill="#F5BCA9"/>
<path d="M28.4149 24.3118C28.1558 24.4784 27.8043 24.4044 27.6378 24.1451L23.8199 18.1953C23.6533 17.936 23.7274 17.5842 23.9864 17.4176L35.0823 10.2765C35.3413 10.1098 35.6929 10.1839 35.8594 10.4431L39.6773 16.393C39.8438 16.6522 39.7698 17.0041 39.5108 17.1707L28.4149 24.3118Z" fill="#5D5D5D"/>
<path d="M35.3805 10.76L25.6523 17.0173L29.4708 22.9621L39.199 16.7048L35.3805 10.76Z" fill="#8C8787"/>
<path d="M49.0833 84.9278C49.0833 84.9278 61.8137 168.362 70.8002 189.841L65.5576 190.717C65.5576 190.717 48.7071 146.877 46.8383 134.699C44.9632 122.522 35.0454 88.4212 35.0454 88.4212L48.5282 83.9218" fill="#231F20"/>
<path d="M22.8701 85.8043L39.9241 86.798V100.235H36.908L41.1515 139.137L45.8945 190.724H41.0281C41.0281 190.724 31.4804 147.445 29.9816 135.267C28.489 123.09 22.8701 85.8043 22.8701 85.8043Z" fill="#231F20"/>
<path d="M20.6252 37.1251C22.124 34.5328 35.0394 31.6011 35.0394 31.6011C35.0394 31.6011 55.2636 35.6993 56.639 37.8164C57.3237 38.8718 49.0835 84.934 49.0835 84.934C49.0835 84.934 38.8511 93.9268 22.8703 86.9338C22.8703 86.9276 14.3834 47.9077 20.6252 37.1251Z" fill="#5B5B5B"/>
<path d="M44.9508 23.0342C44.8891 23.0404 42.6872 33.7736 42.6872 33.7736C42.6872 33.7736 37.1732 40.7974 33.0161 39.1001C30.4873 38.0694 30.4873 33.3354 30.4873 33.3354L31.3323 23.6637L44.9508 23.0342Z" fill="#DEAA99"/>
<path d="M38.678 5.79562C38.678 5.79562 35.2178 8.89401 33.2565 13.4984C31.3013 18.1028 29.5558 20.084 28.5874 21.1703C27.0948 22.8491 29.124 27.6756 34.0089 28.8669C38.8938 30.0581 41.5275 28.2743 44.1241 25.5525C44.1241 25.5525 45.5674 26.9103 47.6645 25.1019C49.5271 23.491 49.1694 21.7381 47.8865 21.5159C46.6036 21.2875 46.6036 21.2875 46.6036 21.2875C46.6036 21.2875 51.2603 15.1525 49.8849 12.0603C48.5094 8.96807 41.546 3.80821 38.678 5.79562Z" fill="#F5BCA9"/>
<path d="M39.2084 23.565C39.3441 23.5958 32.5903 26.6325 32.5903 20.4419C32.5903 20.4419 35.6372 22.7688 39.2084 23.565Z" fill="white"/>
<path d="M45.524 22.7688C45.524 22.7688 43.9636 22.3923 44.4879 21.6578C45.0183 20.9234 46.7761 13.9057 48.4969 13.3811C48.4969 13.3811 39.7201 13.5909 36.223 9.8815C32.7258 6.17208 36.5067 1.2159 40.4911 0C40.4911 0 40.1642 2.61079 43.1741 3.22183C49.86 4.57968 55.9106 9.63462 52.8267 12.77C52.8267 12.77 54.3625 13.918 51.5438 17.7386C46.881 24.0711 47.911 19.6704 45.524 22.7688Z" fill="#402F31"/>
<path d="M41.8607 17.8867C41.6695 18.4545 41.2562 18.8372 40.9478 18.7261C40.6394 18.6211 40.5408 18.0718 40.732 17.504C40.9232 16.9362 41.3364 16.5535 41.6448 16.6646C41.9593 16.7634 42.0519 17.3127 41.8607 17.8867Z" fill="#402F31"/>
<path d="M34.9462 15.6648C34.6687 16.1956 34.2061 16.5042 33.9101 16.356C33.6202 16.2017 33.6078 15.6463 33.8916 15.1155C34.1753 14.5847 34.6317 14.2761 34.9277 14.4242C35.2176 14.5723 35.2238 15.1278 34.9462 15.6648Z" fill="#402F31"/>
<path d="M40.6333 15.3067C40.6333 15.3067 42.4775 15.4981 43.9146 17.1522C43.9146 17.1522 44.4327 16.8251 43.3965 15.677C43.4026 15.6832 41.5646 13.5415 40.6333 15.3067Z" fill="#402F31"/>
<path d="M36.7908 14.06C36.7908 14.06 35.5079 13.091 33.5712 13.4922C33.5712 13.4922 33.4479 12.9305 34.8171 12.6774C34.8171 12.6713 37.3089 12.1405 36.7908 14.06Z" fill="#402F31"/>
<path d="M32.5904 50.6234L25.6023 34.3229C25.6023 34.3229 14.3522 37.7916 13.9143 37.4398C13.4764 37.088 23.3696 26.6695 23.3696 26.6695L18.6265 21.5529C18.6265 21.5529 0.0737539 34.4278 -0.000259805 38.5569C-0.135952 46.0066 19.0398 56.8325 19.0398 56.8325L32.5904 50.6234Z" fill="#5B5B5B"/>
<path d="M28.8468 197.377C28.8653 197.087 29.4389 196.76 30.1235 196.612C31.6408 196.291 34.1572 195.68 35.4278 194.908C37.3213 193.76 40.3559 191.841 40.3559 191.841C40.3559 191.841 41.9534 193.643 43.446 193.865C44.9386 194.087 45.5368 193.007 45.8206 193.501C46.1105 193.995 45.4012 197.945 45.4012 197.945L41.9163 197.963C41.9163 197.963 41.756 197.204 41.0528 196.976C40.3559 196.747 38.2033 197.988 38.2033 197.988L28.8159 197.895C28.8159 197.902 28.8344 197.667 28.8468 197.377Z" fill="#402F31"/>
<path d="M68.0306 197.494C68.5302 197.741 74.8892 199.753 77.603 200.605C78.2691 200.815 79.1697 200.79 79.6076 200.549C80.0455 200.309 79.9591 199.753 79.4225 199.303C77.6215 197.803 73.9208 194.698 73.5014 194.161C72.9463 193.445 71.6141 192.137 71.4907 191.841C71.3612 191.544 69.3813 191.939 68.1909 192.655C67.0006 193.371 66.6058 192.976 66.2851 192.816C65.9705 192.655 65.6066 192.686 65.8904 193.371C65.8904 193.371 67.3953 197.18 68.0306 197.494Z" fill="#402F31"/>
<path d="M33.886 39.2483L30.7959 42.106L32.3009 44.6057C32.3009 44.6057 28.7297 61.4369 29.7351 74.1884L33.0657 79.1076L36.3963 75.2994C36.3963 75.2994 32.5414 54.086 34.2807 44.6982L36.3901 42.2603L33.886 39.2483Z" fill="#1D4ED8"/>
<path d="M33.8857 39.2483L38.5609 45.6364C38.5609 45.6364 44.2045 38.0386 44.6116 33.7366L42.9401 32.5331C42.9401 32.5331 38.931 37.8472 33.8857 39.2483Z" fill="#EDF8FF"/>
<path d="M28.9701 45.1612C29.0441 45.4945 33.8858 39.2483 33.8858 39.2483C33.8858 39.2483 30.4504 37.9584 30.4874 32.7738L28.6247 33.3231C28.6185 33.3231 27.422 38.4521 28.9701 45.1612Z" fill="#EDF8FF"/>
<path d="M24.3814 15.603C24.3814 15.603 29.4945 17.6769 29.2601 16.64C29.0257 15.603 28.1129 14.6093 28.1129 14.6093C28.1129 14.6093 30.5862 14.8501 31.0303 14.2143C31.4744 13.5786 30.7897 13.0478 30.7897 13.0478L32.5907 11.8875C32.5907 11.8875 32.381 9.57292 31.7519 9.65316C31.1228 9.7334 30.6849 11.3875 30.6849 11.3875C30.6849 11.3875 27.7922 12.4306 27.5146 12.9861C27.2371 13.5416 27.2371 13.8563 27.2371 13.8563C27.2371 13.8563 23.6659 14.7698 24.3814 15.603Z" fill="#F5BCA9"/>
<path d="M56.639 37.8102C56.639 37.8102 67.4574 72.6022 67.2476 77.4103C67.0379 82.2245 62.9364 103.697 62.9364 103.697H57.632C57.632 103.697 57.4038 78.2682 56.6452 76.2005C54.4618 70.2692 48.0103 56.0919 48.0103 56.0919L56.639 37.8102Z" fill="#5B5B5B"/>
<path d="M73.3783 113.838C73.3783 113.838 58.8778 110.752 51.3345 110.425C49.0339 110.326 45.8945 111.091 45.8945 111.511C45.8945 113.307 49.4719 135.249 50.101 135.527C50.5821 135.736 52.747 136.563 54.3013 136.52C60.9378 136.317 74.1061 136.378 74.6365 136.051C75.6789 135.415 74.0629 113.943 73.3783 113.838Z" fill="#966441"/>
<path d="M53.6351 136.212C53.6351 136.212 49.7987 110.573 51.3345 110.425C52.8703 110.277 72.9342 111.924 73.3783 113.838C73.8162 115.745 75.4445 135.341 74.6488 136.051C73.8532 136.767 53.1602 138.434 53.6351 136.212Z" fill="#BA7C51"/>
<path d="M58.3103 103.697C58.3103 103.697 56.2503 106.08 56.1454 106.87C56.0406 107.666 55.7754 108.437 56.1454 108.419C56.5155 108.4 57.1323 108.19 57.1323 108.19C57.1323 108.19 57.8909 106.444 58.5755 106.709C59.2602 106.974 58.8901 110.307 58.8901 110.307C58.8901 110.307 63.2261 110.462 64.2314 108.715C65.2368 106.968 62.5414 103.691 62.5414 103.691L58.3103 103.697Z" fill="#F5BCA9"/>
<path d="M59.1617 109.437C59.1617 109.437 58.6867 110.838 59.0321 110.783C59.3775 110.733 60.5679 110.783 60.5679 110.783C60.5679 110.783 60.6974 111.128 61.8878 110.783C63.0782 110.437 63.2632 110.314 63.2632 110.314C63.2632 110.314 63.843 110.363 64.1082 110.042C64.3735 109.721 64.6387 108.123 64.466 107.45C64.2933 106.777 59.1678 108.721 59.1678 108.721" fill="#F5BCA9"/>
<path d="M50.2241 110.943C50.2241 110.943 51.7599 109.783 52.6542 113.276C53.5486 116.77 52.7591 125.707 55.5593 126.552C58.3595 127.398 73.2856 128.145 74.5746 126.929C74.5746 126.929 78.5035 129.466 52.3397 128.83L50.2241 110.943Z" fill="#966441"/>
<path d="M62.5229 126.126C62.5229 126.126 62.8313 130.904 63.8058 130.879C64.7804 130.848 65.8967 131.114 66.162 130.558C66.4272 130.003 66.4888 126.219 66.162 126.133C65.8351 126.046 62.9485 126.133 62.9485 126.133" fill="#FFB85C"/>
<path d="M123.553 192.532C123.553 192.532 125.348 191.131 124.953 190.02C124.559 188.909 128.364 189.65 128.364 189.65C128.364 189.65 129.579 193.069 128.494 195.075C127.414 197.081 123.553 192.532 123.553 192.532Z" fill="#EFEFEF"/>
<path d="M147.534 195.031L146.578 190.927L150.204 190.328C150.204 190.328 152.018 195.038 151.111 195.031C151.068 195.031 147.534 195.031 147.534 195.031Z" fill="#EFEFEF"/>
<path d="M152.203 194.149C152.203 194.149 154.374 197.618 154.713 198.753C154.929 199.469 154.528 200.815 154.528 200.815C154.528 200.815 153.659 200.975 152.918 201C152.388 201.018 149.218 200.093 148.416 199.445C148.132 199.216 146.128 196.371 146.091 195.531C146.041 194.495 146.553 192.347 146.683 192.069C146.806 191.791 146.788 192.371 147.978 193.038C149.168 193.705 150.433 192.828 150.754 192.68C151.068 192.532 151.414 192.68 152.203 194.149Z" fill="#402F31"/>
<path d="M128.741 87.1992C128.617 85.4401 124.01 117.029 122.456 131.632C120.963 145.643 124.294 178.509 123.689 190.403L129.734 191.298C129.734 191.298 129.499 149.451 131.689 139.563C134.76 125.701 142.26 86.9338 142.26 86.9338L129.117 86.1252" fill="#231F20"/>
<path d="M154.713 83.8785L138.078 87.7855L135.642 100.846L142.482 100.543L143.592 144.063L146.22 192.686L151.012 191.853C151.012 191.853 153.214 153.308 152.597 141.051C151.993 128.787 154.713 83.8785 154.713 83.8785Z" fill="#231F20"/>
<path d="M126.717 37.1251C128.216 34.5328 141.132 31.6011 141.132 31.6011C141.132 31.6011 161.356 35.6993 162.731 37.8164C163.416 38.8718 155.176 84.934 155.176 84.934C155.176 84.934 144.943 93.9268 128.963 86.9338C128.963 86.9276 120.476 47.9077 126.717 37.1251Z" fill="#5B5B5B"/>
<path d="M151.043 23.0342C150.981 23.0404 148.78 33.7736 148.78 33.7736C148.78 33.7736 143.265 40.7974 139.108 39.1001C136.58 38.0694 136.58 33.3354 136.58 33.3354L137.425 23.6637L151.043 23.0342Z" fill="#DEAA99"/>
<path d="M139.3 6.54856C139.3 6.54856 136.87 10.5049 136.302 15.4734C135.735 20.4419 134.631 22.8429 134.014 24.1637C133.064 26.2005 136.382 30.2432 141.409 29.9963C146.43 29.7494 148.446 27.2806 150.161 23.9291C150.161 23.9291 151.931 24.8179 153.424 22.4849C154.75 20.4111 153.905 18.831 152.61 18.9853C151.315 19.1334 151.315 19.1334 151.315 19.1334C151.315 19.1334 154.028 11.9244 151.833 9.35686C149.631 6.7831 141.483 3.8205 139.3 6.54856Z" fill="#F5BCA9"/>
<path d="M144.875 23.423C145.011 23.3859 141.409 27.5027 137.671 23.5526C137.671 23.5526 141.613 24.3241 144.875 23.423Z" fill="white"/>
<path d="M150.698 20.8616C150.698 20.8616 149.094 20.948 149.39 20.0901C149.686 19.2322 149.372 12.0108 150.87 11.011C150.87 11.011 142.513 13.7205 138.109 11.1653C133.699 8.61002 135.914 2.77741 139.386 0.47522C139.386 0.47522 139.818 3.07367 142.877 2.79592C149.668 2.18489 156.909 5.30796 154.849 9.19637C154.849 9.19637 156.644 9.85678 155.034 14.3254C152.369 21.7257 152.104 17.2077 150.698 20.8616Z" fill="#402F31"/>
<path d="M139.417 17.467C139.3 18.0595 138.948 18.4854 138.621 18.4237C138.301 18.3619 138.134 17.8311 138.251 17.2386C138.369 16.6461 138.72 16.2202 139.047 16.2819C139.368 16.3437 139.534 16.8745 139.417 17.467Z" fill="#402F31"/>
<path d="M144.431 13.8933C144.431 13.8933 146.257 14.2204 147.571 15.9794C147.571 15.9794 148.113 15.6955 147.163 14.4735C147.157 14.4735 145.486 12.2021 144.431 13.8933Z" fill="#402F31"/>
<path d="M139.849 15.0043C139.849 15.0043 138.344 14.4364 136.604 15.3746C136.604 15.3746 136.327 14.8685 137.56 14.2389C137.56 14.2389 139.793 13.0169 139.849 15.0043Z" fill="#402F31"/>
<path d="M127.211 37.8656L126.717 37.125C126.717 37.125 121.82 40.0876 107.868 55.561C106.468 57.1164 91.5361 42.9453 91.5361 42.9453L86.8115 46.5066C86.8115 46.5066 102.478 67.8249 106.598 67.7756C114.042 67.6891 132.126 52.4503 132.126 52.4503L127.211 37.8656Z" fill="#5B5B5B"/>
<path d="M112.458 197.377C112.476 197.087 113.05 196.76 113.734 196.612C115.252 196.291 117.768 195.68 119.039 194.908C120.932 193.76 123.967 191.841 123.967 191.841C123.967 191.841 125.564 193.643 127.057 193.865C128.549 194.087 129.148 193.007 129.431 193.501C129.721 193.995 129.012 197.945 129.012 197.945L125.527 197.963C125.527 197.963 125.367 197.204 124.664 196.976C123.967 196.747 121.814 197.988 121.814 197.988L112.427 197.895C112.427 197.902 112.445 197.667 112.458 197.377Z" fill="#402F31"/>
<path d="M162.731 37.8102C162.731 37.8102 174.247 55.8265 174.765 72.6207C174.839 75.1081 168.066 78.4719 168.066 77.0955C168.066 74.3427 156.594 54.5303 156.594 54.5303L162.731 37.8102Z" fill="#5B5B5B"/>
<path d="M139.978 39.2483L136.888 42.106L138.393 44.6057C138.393 44.6057 135.069 62.7331 135.827 74.1884L139.158 79.1076L142.489 75.2994C142.489 75.2994 139.109 54.7217 140.373 44.6982L142.489 42.2664L139.978 39.2483Z" fill="#1D4ED8"/>
<path d="M139.978 39.2482L144.653 45.6363C144.653 45.6363 150.297 38.0385 150.698 33.7365L149.032 32.533C149.032 32.533 145.023 37.8471 139.978 39.2482Z" fill="#EDF8FF"/>
<path d="M135.062 45.161C135.136 45.4943 139.978 39.2482 139.978 39.2482C139.978 39.2482 136.543 37.9582 136.58 32.7737L134.717 33.323C134.711 33.323 133.514 38.452 135.062 45.161Z" fill="#EDF8FF"/>
<path d="M177.491 78.0645C177.09 79.9161 176.498 80.2617 176.572 80.3666C176.64 80.4777 177.454 80.9715 176.929 82.354C176.399 83.7304 175.431 84.5081 175.431 84.8414C175.412 85.8721 175.258 87.3473 172.408 87.8719C172.384 87.8719 172.353 87.8781 172.328 87.8842C172.328 87.8842 168.325 88.4089 168.042 85.8289C167.764 83.2367 168.288 81.6443 167.437 80.0519C166.586 78.4595 167.598 74.9846 168.714 72.9972C170.484 69.8432 168.917 65.6154 169.621 64.1155C170.441 62.375 172.47 61.6529 172.686 62.9984C172.896 64.3439 171.409 69.8432 172.439 71.6517C172.439 71.6517 173.722 71.0221 174.777 70.8493C174.783 70.8431 174.783 70.8431 174.783 70.8431L174.987 70.8246C174.987 70.8246 174.993 70.8246 174.993 70.8184C175.276 70.7876 175.536 70.7937 175.733 70.8678C176.689 71.2258 176.387 74.6143 176.473 74.7254C176.831 75.2191 177.972 75.824 177.491 78.0645Z" fill="#F5BCA9"/>
<path d="M76.3018 73.5465V30.3296C76.3018 29.9778 76.5855 29.6938 76.937 29.6938H105.266C105.617 29.6938 105.901 29.9778 105.901 30.3296V73.5465C105.901 73.8983 105.617 74.1822 105.266 74.1822H76.937C76.5855 74.1822 76.3018 73.8983 76.3018 73.5465Z" fill="#402F31"/>
<path d="M104.001 31.6011H78.2075V72.2813H104.001V31.6011Z" fill="#F5F5F5"/>
<path d="M83.1787 30.3666C83.1787 30.3666 83.4994 29.3174 84.1285 29.3174C84.7638 29.3174 85.4793 28.3669 86.8115 28.3669C88.1438 28.3669 88.1438 28.3669 88.1438 28.3669C88.1438 28.3669 89.3095 27.6262 90.2162 27.6262C91.129 27.6262 92.0418 28.5397 92.0418 28.5397C92.0418 28.5397 93.4728 28.3792 93.627 28.7742C93.7873 29.1754 93.4604 35.1253 92.5908 35.0821L91.5608 34.8846C91.5608 34.8846 91.203 37.662 89.8955 37.4213C88.5879 37.1806 88.483 36.1437 88.4152 35.8906C88.3473 35.6376 88.483 36.1437 88.483 36.1437C88.483 36.1437 87.1631 36.7362 86.4477 35.8845C85.7384 35.0327 85.6952 34.2797 85.6952 34.2797C85.6952 34.2797 84.7823 34.9154 84.2272 33.8785C83.6721 32.8601 83.1787 30.3666 83.1787 30.3666Z" fill="#F5BCA9"/>
<path d="M177.491 78.0645C177.09 79.9161 176.498 80.2617 176.572 80.3667C176.64 80.4778 177.454 80.9715 176.93 82.3541C176.399 83.7304 175.431 84.5081 175.431 84.8414C175.412 85.8722 175.258 87.3473 172.409 87.8719C171.884 87.1436 172.6 85.8104 172.6 85.8104C172.6 85.8104 171.693 85.8043 171.255 84.8538C170.817 83.9033 172.458 82.2121 172.458 82.2121C172.458 82.2121 171.477 81.7307 171.144 80.9839C170.49 79.5026 172.6 77.4102 172.6 77.4102C172.6 77.4102 171.669 77.2004 171.212 76.2252C170.54 74.7748 174.567 71.0406 174.771 70.8555C174.777 70.8493 174.777 70.8493 174.777 70.8493L174.981 70.8308C174.981 70.8308 174.987 70.8308 174.987 70.8246C175.271 70.7938 175.53 70.7999 175.727 70.874C176.683 71.232 176.381 74.6205 176.467 74.7315C176.831 75.2191 177.972 75.824 177.491 78.0645Z" fill="#F5CBBD"/>
<path d="M143.722 17.7139C143.722 17.7139 143.697 17.467 143.87 17.4176C144.055 17.3621 145.215 16.893 146.023 17.504C146.374 17.7756 146.534 18.9607 146.337 18.8064C146.14 18.6459 145.844 17.5781 143.722 17.7139Z" fill="#402F31"/>
<path d="M84.6899 40.5197H80.7549V44.4574H84.6899V40.5197Z" fill="#EDEDED"/>
<path d="M84.7148 51.2097H80.7798V55.1475H84.7148V51.2097Z" fill="#EDEDED"/>
<path d="M84.7148 61.9307H80.7798V65.8685H84.7148V61.9307Z" fill="#EDEDED"/>
<path d="M100.479 40.5197H86.4414V44.4574H100.479V40.5197Z" fill="#EDEDED"/>
<path d="M100.572 51.2097H86.5342V55.1475H100.572V51.2097Z" fill="#EDEDED"/>
<path d="M100.572 61.9307H86.5342V65.8685H100.572V61.9307Z" fill="#EDEDED"/>
</g>
<defs>
<clipPath id="clip0_110_3263">
<rect width="280" height="201" fill="white"/>
</clipPath>
</defs>
</svg>
