<svg width="20" height="20" viewBox="0 0 20 20" fill="none" xmlns="http://www.w3.org/2000/svg">
<path d="M18.1336 13.2666L12.8002 3.66663C12.0836 2.37496 11.0919 1.66663 10.0002 1.66663C8.90856 1.66663 7.91689 2.37496 7.20023 3.66663L1.86689 13.2666C1.19189 14.4916 1.11689 15.6666 1.65856 16.5916C2.20023 17.5166 3.26689 18.025 4.66689 18.025H15.3336C16.7336 18.025 17.8002 17.5166 18.3419 16.5916C18.8836 15.6666 18.8086 14.4833 18.1336 13.2666ZM9.37523 7.49996C9.37523 7.15829 9.65856 6.87496 10.0002 6.87496C10.3419 6.87496 10.6252 7.15829 10.6252 7.49996V11.6666C10.6252 12.0083 10.3419 12.2916 10.0002 12.2916C9.65856 12.2916 9.37523 12.0083 9.37523 11.6666V7.49996ZM10.5919 14.7583C10.5502 14.7916 10.5086 14.825 10.4669 14.8583C10.4169 14.8916 10.3669 14.9166 10.3169 14.9333C10.2669 14.9583 10.2169 14.975 10.1586 14.9833C10.1086 14.9916 10.0502 15 10.0002 15C9.95023 15 9.89189 14.9916 9.83356 14.9833C9.78356 14.975 9.73356 14.9583 9.68356 14.9333C9.63356 14.9166 9.58356 14.8916 9.53356 14.8583C9.49189 14.825 9.45023 14.7916 9.40856 14.7583C9.25856 14.6 9.16689 14.3833 9.16689 14.1666C9.16689 13.95 9.25856 13.7333 9.40856 13.575C9.45023 13.5416 9.49189 13.5083 9.53356 13.475C9.58356 13.4416 9.63356 13.4166 9.68356 13.4C9.73356 13.375 9.78356 13.3583 9.83356 13.35C9.94189 13.325 10.0586 13.325 10.1586 13.35C10.2169 13.3583 10.2669 13.375 10.3169 13.4C10.3669 13.4166 10.4169 13.4416 10.4669 13.475C10.5086 13.5083 10.5502 13.5416 10.5919 13.575C10.7419 13.7333 10.8336 13.95 10.8336 14.1666C10.8336 14.3833 10.7419 14.6 10.5919 14.7583Z" fill="#F9DE18"/>
</svg>
