<svg width="16" height="16" viewBox="0 0 16 16" fill="none" xmlns="http://www.w3.org/2000/svg">
<path d="M10.9468 5.29996C12.5735 6.92662 12.5735 9.56662 10.9468 11.1933C9.32016 12.82 6.68016 12.82 5.0535 11.1933C3.42683 9.56662 3.42683 6.92662 5.0535 5.29996C6.68016 3.67329 9.32016 3.67329 10.9468 5.29996Z" fill="#9333EA"/>
<path d="M5.50018 14.9266C5.44018 14.9266 5.37352 14.9133 5.31352 14.8933C3.81352 14.2933 2.60018 13.2333 1.78685 11.8333C1.00018 10.4666 0.68685 8.91995 0.893517 7.34662C0.92685 7.07328 1.18685 6.87995 1.45352 6.91328C1.72685 6.94662 1.92018 7.19995 1.88685 7.47328C1.71352 8.82662 1.98018 10.1599 2.65352 11.3333C3.34685 12.5333 4.39352 13.4466 5.68018 13.96C5.93352 14.0666 6.06018 14.3533 5.96018 14.6133C5.88685 14.8066 5.69352 14.9266 5.50018 14.9266Z" fill="#9333EA"/>
<path d="M3.90023 3.4867C3.75357 3.4867 3.6069 3.42003 3.5069 3.29336C3.33357 3.08003 3.37357 2.7667 3.59357 2.59336C4.86023 1.60003 6.3869 1.07336 8.00023 1.07336C9.57357 1.07336 11.0736 1.58003 12.3336 2.54003C12.5536 2.7067 12.5936 3.02003 12.4269 3.24003C12.2602 3.46003 11.9469 3.50003 11.7269 3.33336C10.6402 2.5067 9.35357 2.07336 8.00023 2.07336C6.61357 2.07336 5.30023 2.5267 4.2069 3.38003C4.11357 3.45336 4.0069 3.4867 3.90023 3.4867Z" fill="#9333EA"/>
<path d="M10.4998 14.9267C10.2998 14.9267 10.1131 14.8067 10.0331 14.6133C9.93314 14.36 10.0531 14.0667 10.3131 13.96C11.5998 13.44 12.6465 12.5333 13.3398 11.3333C14.0198 10.16 14.2865 8.82666 14.1065 7.48C14.0731 7.20666 14.2665 6.95333 14.5398 6.92C14.8065 6.88666 15.0665 7.08 15.0998 7.35333C15.2998 8.92 14.9931 10.4733 14.2065 11.84C13.3998 13.24 12.1798 14.2933 10.6798 14.9C10.6265 14.9133 10.5665 14.9267 10.4998 14.9267Z" fill="#9333EA"/>
</svg>
