<svg width="16" height="17" viewBox="0 0 16 17" fill="none" xmlns="http://www.w3.org/2000/svg">
<path d="M3.99984 9.16663C2.15984 9.16663 0.666504 10.6533 0.666504 12.5C0.666504 14.3466 2.15984 15.8333 3.99984 15.8333C5.83984 15.8333 7.33317 14.34 7.33317 12.5C7.33317 10.66 5.8465 9.16663 3.99984 9.16663ZM2.63984 11.14H3.99984C4.25317 11.14 4.45317 11.3466 4.45317 11.5933C4.45317 11.84 4.25317 12.0466 3.99984 12.0466H2.63984C2.3865 12.0466 2.1865 11.84 2.1865 11.5933C2.1865 11.3466 2.3865 11.14 2.63984 11.14ZM5.35984 13.86H2.63984C2.3865 13.86 2.1865 13.6533 2.1865 13.4066C2.1865 13.16 2.39317 12.9533 2.63984 12.9533H5.3665C5.61984 12.9533 5.81984 13.16 5.81984 13.4066C5.81984 13.6533 5.61317 13.86 5.35984 13.86Z" fill="#2563EB"/>
<path d="M11.3335 2.5H4.66683C2.66683 2.5 1.3335 3.5 1.3335 5.83333V7.92667C1.3335 8.41333 1.8335 8.72 2.28016 8.52667C3.0135 8.20667 3.84683 8.08667 4.72016 8.22667C6.46683 8.51333 7.8935 9.89333 8.24683 11.6267C8.34683 12.1333 8.36016 12.6267 8.2935 13.1C8.24016 13.4933 8.56016 13.84 8.9535 13.84H11.3335C13.3335 13.84 14.6668 12.84 14.6668 10.5067V5.83333C14.6668 3.5 13.3335 2.5 11.3335 2.5ZM11.6468 6.22667L9.56016 7.89333C9.12016 8.24667 8.56016 8.42 8.00016 8.42C7.44016 8.42 6.8735 8.24667 6.44016 7.89333L4.3535 6.22667C4.14016 6.05333 4.10683 5.73333 4.2735 5.52C4.44683 5.30667 4.76016 5.26667 4.9735 5.44L7.06016 7.10667C7.56683 7.51333 8.42683 7.51333 8.9335 7.10667L11.0202 5.44C11.2335 5.26667 11.5535 5.3 11.7202 5.52C11.8935 5.73333 11.8602 6.05333 11.6468 6.22667Z" fill="#2563EB"/>
</svg>
