<svg width="16" height="16" viewBox="0 0 16 16" fill="none" xmlns="http://www.w3.org/2000/svg">
<path d="M10.9468 5.30008C12.5735 6.92674 12.5735 9.56675 10.9468 11.1934C9.32016 12.8201 6.68016 12.8201 5.0535 11.1934C3.42683 9.56675 3.42683 6.92674 5.0535 5.30008C6.68016 3.67341 9.32016 3.67341 10.9468 5.30008Z" fill="#0ECDD3"/>
<path d="M5.50018 14.9267C5.44018 14.9267 5.37352 14.9134 5.31352 14.8934C3.81352 14.2934 2.60018 13.2334 1.78685 11.8334C1.00018 10.4667 0.68685 8.92007 0.893517 7.34674C0.92685 7.07341 1.18685 6.88007 1.45352 6.9134C1.72685 6.94674 1.92018 7.20007 1.88685 7.47341C1.71352 8.82674 1.98018 10.1601 2.65352 11.3334C3.34685 12.5334 4.39352 13.4467 5.68018 13.9601C5.93352 14.0667 6.06018 14.3534 5.96018 14.6134C5.88685 14.8067 5.69352 14.9267 5.50018 14.9267Z" fill="#0ECDD3"/>
<path d="M3.90023 3.48658C3.75357 3.48658 3.6069 3.41991 3.5069 3.29324C3.33357 3.07991 3.37357 2.76658 3.59357 2.59324C4.86023 1.59991 6.3869 1.07324 8.00023 1.07324C9.57357 1.07324 11.0736 1.57991 12.3336 2.53991C12.5536 2.70658 12.5936 3.01991 12.4269 3.23991C12.2602 3.45991 11.9469 3.49991 11.7269 3.33324C10.6402 2.50658 9.35357 2.07324 8.00023 2.07324C6.61357 2.07324 5.30023 2.52658 4.2069 3.37991C4.11357 3.45324 4.0069 3.48658 3.90023 3.48658Z" fill="#0ECDD3"/>
<path d="M10.4998 14.9267C10.2998 14.9267 10.1131 14.8067 10.0331 14.6133C9.93314 14.36 10.0531 14.0667 10.3131 13.96C11.5998 13.44 12.6465 12.5333 13.3398 11.3333C14.0198 10.16 14.2865 8.82666 14.1065 7.48C14.0731 7.20666 14.2665 6.95333 14.5398 6.92C14.8065 6.88666 15.0665 7.08 15.0998 7.35333C15.2998 8.92 14.9931 10.4733 14.2065 11.84C13.3998 13.24 12.1798 14.2933 10.6798 14.9C10.6265 14.9133 10.5665 14.9267 10.4998 14.9267Z" fill="#0ECDD3"/>
</svg>
